<svg version="1.1" xmlns="http://www.w3.org/2000/svg" viewBox="0 0 133.39413529844205 139.24958687125945" width="133.39413529844205" height="139.24958687125945"><!-- svg-source:excalidraw --><metadata></metadata><defs><style class="style-fonts">
      </style></defs><g stroke-linecap="round"><g transform="translate(9.867815352230537 126.96445442660934) rotate(0 56.82925229699049 -57.33966099097961)"><path d="M0.13 2.29 C18.69 -17.37, 94.86 -97.37, 113.53 -116.96" stroke="#FFFFFF" stroke-width="4.5" fill="none" stroke-dasharray="8 12"></path></g></g><mask></mask><g stroke-linecap="round"><g transform="translate(74.60420247034926 79.34520034421166) rotate(0 19.482489760614953 16.874286723936393)"><path d="M-0.8 0.27 C5.89 5.96, 32.85 28.67, 39.77 34.38 M0.98 -0.63 C7.54 4.7, 32.2 27.18, 38.77 32.74" stroke="#FFFFFF" stroke-width="4" fill="none"></path></g><g transform="translate(74.60420247034926 79.34520034421166) rotate(0 19.482489760614953 16.874286723936393)"><path d="M15.95 23.47 C23.27 27.65, 29.71 28.65, 36.97 33.75 M14.58 23.02 C20.22 26.18, 25.28 27.32, 39.23 32.35" stroke="#FFFFFF" stroke-width="4" fill="none"></path></g><g transform="translate(74.60420247034926 79.34520034421166) rotate(0 19.482489760614953 16.874286723936393)"><path d="M27.25 10.63 C31.58 18.17, 35 22.6, 36.97 33.75 M25.88 10.18 C29.31 15.87, 32.04 19.65, 39.23 32.35" stroke="#FFFFFF" stroke-width="4" fill="none"></path></g></g><mask></mask></svg>