<svg version="1.1" xmlns="http://www.w3.org/2000/svg" viewBox="0 0 299.1335694005793 259.2573452004981" width="299.1335694005793" height="259.2573452004981"><!-- svg-source:excalidraw --><metadata></metadata><defs><style class="style-fonts">
      </style></defs><g stroke-linecap="round" transform="translate(136.00886847226138 10) rotate(0 22.330685552046816 22.330685552046816)"><path d="M31.47 2.25 C35.65 3.61, 39.84 6.8, 41.93 10.83 C44.01 14.87, 44.97 21.78, 43.99 26.48 C43 31.18, 39.65 35.97, 36.02 39.02 C32.38 42.07, 26.83 44.78, 22.18 44.78 C17.54 44.79, 11.96 42.07, 8.14 39.03 C4.33 35.99, 0.13 31.38, -0.71 26.53 C-1.54 21.68, 0.49 14.29, 3.11 9.91 C5.73 5.54, 9.79 1.34, 14.99 0.27 C20.2 -0.8, 30.4 2.46, 34.33 3.5 C38.25 4.54, 38.6 6.24, 38.55 6.52 M17.59 1.73 C21.99 0.35, 29.14 -0.56, 33.26 1.43 C37.39 3.41, 40.6 9.25, 42.32 13.66 C44.04 18.07, 44.96 23.1, 43.6 27.87 C42.24 32.65, 37.95 39.37, 34.17 42.31 C30.38 45.26, 25.62 46.55, 20.86 45.55 C16.1 44.55, 9.16 40.01, 5.58 36.31 C2 32.6, -0.32 28.04, -0.61 23.32 C-0.9 18.6, 0.73 11.63, 3.86 7.99 C6.98 4.34, 15.74 2.61, 18.14 1.45 C20.54 0.29, 18.2 0.92, 18.25 1.03" stroke="#FFFFFF" stroke-width="4" fill="none"></path></g><g stroke-linecap="round" transform="translate(45.88860178007417 204.59597409640446) rotate(0 22.330685552046816 22.330685552046816)"><path d="M15.37 2.14 C19.51 0.01, 25.22 -0.98, 29.51 0.48 C33.81 1.94, 38.73 6.75, 41.13 10.91 C43.52 15.06, 44.52 20.6, 43.9 25.43 C43.27 30.26, 40.83 36.67, 37.36 39.88 C33.89 43.1, 27.87 44.81, 23.07 44.69 C18.26 44.57, 12.44 42.26, 8.53 39.18 C4.63 36.1, 0.55 30.98, -0.36 26.2 C-1.28 21.42, 0.16 14.8, 3.04 10.48 C5.93 6.16, 14.21 1.83, 16.93 0.28 C19.66 -1.27, 19.13 0.88, 19.37 1.16 M26.07 -0.17 C30.36 0.31, 36.13 4.49, 39.23 8.43 C42.32 12.37, 44.8 18.91, 44.64 23.46 C44.47 28.01, 41.45 32.26, 38.23 35.74 C35.02 39.21, 29.59 43.43, 25.35 44.29 C21.11 45.15, 16.67 43.43, 12.79 40.89 C8.92 38.35, 4.16 33.56, 2.09 29.06 C0.03 24.56, -1.16 18.43, 0.38 13.89 C1.92 9.35, 7.17 4.2, 11.34 1.83 C15.5 -0.54, 23.01 -0.24, 25.36 -0.33 C27.72 -0.42, 25.44 0.89, 25.46 1.28" stroke="#FFFFFF" stroke-width="4" fill="none"></path></g><g stroke-linecap="round" transform="translate(10 61.83909146010774) rotate(0 22.330685552046816 22.330685552046816)"><path d="M29.89 2.03 C34.16 3.15, 38.92 6.83, 41.41 10.66 C43.91 14.48, 45.5 20.19, 44.87 24.97 C44.23 29.75, 41.24 36.16, 37.61 39.33 C33.98 42.51, 27.91 43.96, 23.1 44.05 C18.3 44.14, 12.56 42.75, 8.77 39.89 C4.98 37.04, 1.46 31.74, 0.36 26.92 C-0.75 22.1, -0.24 15.06, 2.14 10.98 C4.52 6.9, 9.85 4.03, 14.65 2.43 C19.46 0.83, 27.9 1.22, 30.97 1.36 C34.04 1.51, 33.1 2.67, 33.05 3.29 M13.03 1.62 C16.75 -0.38, 22.53 -1.07, 27.03 0.47 C31.52 2, 36.91 6.79, 40 10.81 C43.09 14.83, 45.94 19.89, 45.57 24.6 C45.19 29.32, 41.49 35.83, 37.75 39.1 C34 42.37, 27.78 44.12, 23.12 44.24 C18.46 44.36, 13.52 42.68, 9.77 39.82 C6.01 36.96, 1.99 31.56, 0.59 27.08 C-0.8 22.61, -0.56 17.4, 1.4 12.98 C3.37 8.56, 10.5 2.47, 12.38 0.57 C14.25 -1.33, 12.48 0.97, 12.66 1.57" stroke="#FFFFFF" stroke-width="4" fill="none"></path></g><g stroke-linecap="round" transform="translate(244.47219829648748 60.2440424921042) rotate(0 22.330685552046816 22.330685552046816)"><path d="M16.95 1.44 C21.26 0.41, 28.06 1.31, 32.36 3.26 C36.67 5.22, 40.74 9.05, 42.78 13.17 C44.82 17.28, 45.95 23.23, 44.6 27.98 C43.26 32.73, 38.78 38.98, 34.7 41.66 C30.62 44.34, 24.97 44.84, 20.13 44.08 C15.28 43.32, 8.99 40.65, 5.65 37.09 C2.31 33.54, 0.22 27.4, 0.08 22.75 C-0.06 18.1, 1.39 12.89, 4.82 9.19 C8.24 5.49, 17.83 1.87, 20.64 0.56 C23.45 -0.74, 21.68 1.01, 21.67 1.36 M14.38 1.48 C18.92 -0.43, 26.87 0.38, 31.58 2.2 C36.29 4.01, 40.52 8.48, 42.64 12.36 C44.76 16.25, 45.21 21.15, 44.27 25.49 C43.33 29.84, 40.74 35.18, 37 38.43 C33.27 41.68, 26.88 45.03, 21.87 44.99 C16.85 44.95, 10.52 41.39, 6.89 38.17 C3.26 34.94, 0.83 30.34, 0.1 25.63 C-0.63 20.91, 0.09 13.7, 2.53 9.87 C4.96 6.05, 12.57 4.25, 14.71 2.67 C16.85 1.1, 15.23 0.56, 15.37 0.44" stroke="#FFFFFF" stroke-width="4" fill="none"></path></g><g stroke-linecap="round" transform="translate(199.01330270839208 201.40587616039784) rotate(0 22.330685552046816 22.330685552046816)"><path d="M14.2 0.78 C18.32 -1.5, 24.75 -1.49, 29.19 0.14 C33.64 1.76, 38.28 6.41, 40.88 10.55 C43.48 14.69, 45.49 20.19, 44.79 24.97 C44.1 29.74, 40.38 35.9, 36.71 39.19 C33.03 42.48, 27.32 44.71, 22.74 44.72 C18.16 44.73, 12.84 42.11, 9.24 39.24 C5.64 36.37, 2.31 32.07, 1.12 27.49 C-0.06 22.91, -0.42 16.01, 2.13 11.75 C4.69 7.48, 13.86 3.7, 16.44 1.89 C19.01 0.08, 17.44 0.72, 17.58 0.87 M18.16 0.12 C22.58 -0.73, 30.69 -0.07, 35.06 2.39 C39.44 4.84, 43.26 10.15, 44.39 14.84 C45.52 19.53, 43.67 26.13, 41.84 30.53 C40.02 34.94, 37.62 39.17, 33.43 41.28 C29.23 43.38, 21.45 44.18, 16.67 43.19 C11.89 42.19, 7.27 38.8, 4.73 35.3 C2.2 31.81, 1.1 26.69, 1.45 22.23 C1.81 17.76, 4.02 12.11, 6.85 8.51 C9.67 4.91, 16.24 2, 18.4 0.64 C20.56 -0.71, 19.77 0, 19.79 0.38" stroke="#FFFFFF" stroke-width="4" fill="none"></path></g><g stroke-linecap="round"><g transform="translate(64.23166491211305 203.79844961240315) rotate(0 -13.688798850382227 -46.13312891267492)"><path d="M-0.79 2.14 C-6.39 -13.46, -26.66 -78.92, -31.35 -94.4 M3.97 0.83 C-0.99 -14.38, -20.58 -75.78, -26.38 -91.8" stroke="#FFFFFF" stroke-width="4" fill="none"></path></g></g><mask></mask><g stroke-linecap="round"><g transform="translate(61.83909146010774 69.01681181612321) rotate(0 31.33761522856321 -12.807254056928059)"><path d="M-1.2 -0.42 C9.69 -4.4, 53.04 -21.22, 63.88 -25.2 M3.34 -3.11 C14.15 -6.53, 52.62 -18.85, 62.55 -21.82" stroke="#FFFFFF" stroke-width="4" fill="none"></path></g></g><mask></mask><g stroke-linecap="round"><g transform="translate(182.26528854435855 45.09107729607331) rotate(0 25.839062254480723 14.339784769768585)"><path d="M-2.31 -1.91 C6.24 3.05, 44.29 22.15, 53.99 27.58 M1.63 3.23 C9.62 8.76, 43.1 26.76, 52.05 30.59" stroke="#FFFFFF" stroke-width="4" fill="none"></path></g></g><mask></mask><g stroke-linecap="round"><g transform="translate(255.63754107251225 111.28560946821108) rotate(0 -17.808852591525465 42.2527463143208)"><path d="M0.38 0.05 C-4.91 14.89, -27.55 72.23, -33.11 86.9 M-2.85 -2.39 C-8.5 11.83, -30.58 68.34, -36 82.73" stroke="#FFFFFF" stroke-width="4" fill="none"></path></g></g><mask></mask><g stroke-linecap="round"><g transform="translate(193.4306313203815 218.95141480843495) rotate(0 -55.536787114852814 5.034517346384291)"><path d="M1.19 1.56 C-16.94 2.41, -91.36 6.1, -110.6 6.46 M-1.6 -0.06 C-19.86 1.15, -94.39 9.22, -112.27 10.13" stroke="#FFFFFF" stroke-width="4" fill="none"></path></g></g><mask></mask></svg>